<svg xmlns="http://www.w3.org/2000/svg" viewBox="0 0 512 512" width="512" height="512">
  <rect width="512" height="512" fill="#0f0f1e" rx="120"/>
  <defs>
    <linearGradient id="grad" x1="0%" y1="0%" x2="100%" y2="100%">
      <stop offset="0%" style="stop-color:#6366f1;stop-opacity:1" />
      <stop offset="100%" style="stop-color:#8b5cf6;stop-opacity:1" />
    </linearGradient>
  </defs>
  <path d="M256 140c-50 0-90 40-90 90v30h-20c-15 0-25 10-25 25v100c0 15 10 25 25 25h220c15 0 25-10 25-25V285c0-15-10-25-25-25h-20v-30c0-50-40-90-90-90zm-50 90c0-27.5 22.5-50 50-50s50 22.5 50 50v30h-100v-30z" fill="url(#grad)"/>
</svg>
